<?xml version="1.0" encoding="UTF-8" standalone="no"?>
<!-- Created with Inkscape (http://www.inkscape.org/) -->

<svg
   width="788.22656"
   height="278.16891"
   viewBox="0 0 788.22652 278.16891"
   version="1.1"
   id="svg11019"
   sodipodi:docname="logo svg.svg"
   inkscape:version="1.2 (dc2aedaf03, 2022-05-15)"
   xmlns:inkscape="http://www.inkscape.org/namespaces/inkscape"
   xmlns:sodipodi="http://sodipodi.sourceforge.net/DTD/sodipodi-0.dtd"
   xmlns="http://www.w3.org/2000/svg"
   xmlns:svg="http://www.w3.org/2000/svg"
   xmlns:rdf="http://www.w3.org/1999/02/22-rdf-syntax-ns#"
   xmlns:cc="http://creativecommons.org/ns#"
   xmlns:dc="http://purl.org/dc/elements/1.1/">
  <defs
     id="defs11013">
    <inkscape:path-effect
       effect="interpolate"
       id="path-effect22184"
       is_visible="true"
       lpeversion="1"
       trajectory="m 429.97634,393.19189 c 14.22671,15.39416 22.94892,17.08924 57.32616,1.01015"
       equidistant_spacing="true"
       steps="12"
       trajectory-nodetypes="cc" />
    <inkscape:path-effect
       effect="interpolate"
       id="path-effect22180"
       is_visible="true"
       lpeversion="1"
       trajectory="m 490.20669,397.61131 c -26.12425,18.81772 -50.67465,15.0831 -67.55395,-4.92449"
       equidistant_spacing="true"
       steps="15"
       trajectory-nodetypes="cc" />
    <inkscape:path-effect
       effect="interpolate"
       id="path-effect6652"
       is_visible="true"
       lpeversion="1"
       trajectory="m 978.54854,207.36146 c -26.12425,18.81772 -50.67465,15.0831 -67.55395,-4.92449"
       equidistant_spacing="true"
       steps="20"
       trajectory-nodetypes="cc" />
    <inkscape:path-effect
       effect="interpolate"
       id="path-effect6418"
       is_visible="true"
       lpeversion="1"
       trajectory="m 918.31819,202.94204 c 17.18058,14.565 32.75654,14.33622 57.32616,1.01015"
       equidistant_spacing="true"
       steps="18"
       trajectory-nodetypes="cc" />
    <inkscape:path-effect
       effect="skeletal"
       id="path-effect881"
       is_visible="true"
       lpeversion="1"
       pattern="M 0,18.867924 C 0,8.4528297 8.4528297,0 18.867924,0 c 10.415093,0 18.867923,8.4528297 18.867923,18.867924 0,10.415093 -8.45283,18.867923 -18.867923,18.867923 C 8.4528297,37.735847 0,29.283017 0,18.867924 Z"
       copytype="single_stretched"
       prop_scale="0.350286"
       scale_y_rel="false"
       spacing="0"
       normal_offset="0"
       tang_offset="0"
       prop_units="false"
       vertical_pattern="false"
       hide_knot="false"
       fuse_tolerance="0" />
    <inkscape:path-effect
       effect="skeletal"
       id="path-effect877"
       is_visible="true"
       lpeversion="1"
       pattern="M 0,18.867924 C 0,8.4528297 8.4528297,0 18.867924,0 c 10.415093,0 18.867923,8.4528297 18.867923,18.867924 0,10.415093 -8.45283,18.867923 -18.867923,18.867923 C 8.4528297,37.735847 0,29.283017 0,18.867924 Z"
       copytype="single_stretched"
       prop_scale="0.350286"
       scale_y_rel="false"
       spacing="0"
       normal_offset="0"
       tang_offset="0"
       prop_units="false"
       vertical_pattern="false"
       hide_knot="false"
       fuse_tolerance="0" />
    <inkscape:path-effect
       effect="skeletal"
       id="path-effect873"
       is_visible="true"
       lpeversion="1"
       pattern="M 0,18.867924 C 0,8.4528297 8.4528297,0 18.867924,0 c 10.415093,0 18.867923,8.4528297 18.867923,18.867924 0,10.415093 -8.45283,18.867923 -18.867923,18.867923 C 8.4528297,37.735847 0,29.283017 0,18.867924 Z"
       copytype="single_stretched"
       prop_scale="0.350286"
       scale_y_rel="false"
       spacing="0"
       normal_offset="0"
       tang_offset="0"
       prop_units="false"
       vertical_pattern="false"
       hide_knot="false"
       fuse_tolerance="0" />
    <inkscape:path-effect
       effect="skeletal"
       id="path-effect869"
       is_visible="true"
       lpeversion="1"
       pattern="M 0,18.867924 C 0,8.4528297 8.4528297,0 18.867924,0 c 10.415093,0 18.867923,8.4528297 18.867923,18.867924 0,10.415093 -8.45283,18.867923 -18.867923,18.867923 C 8.4528297,37.735847 0,29.283017 0,18.867924 Z"
       copytype="single_stretched"
       prop_scale="0.350286"
       scale_y_rel="false"
       spacing="0"
       normal_offset="0"
       tang_offset="0"
       prop_units="false"
       vertical_pattern="false"
       hide_knot="false"
       fuse_tolerance="0" />
    <inkscape:path-effect
       effect="powerstroke"
       id="path-effect11154-0"
       is_visible="true"
       lpeversion="1"
       offset_points="3.2145685,2.3124969 | 5.0238166,1.8214185 | 6.1149381,1.8899569 | 1.9965953,2.0157146 | 6.7715573,2.0238981 | 0.11961462,2.1010409"
       not_jump="false"
       sort_points="true"
       interpolator_type="CentripetalCatmullRom"
       interpolator_beta="0.2"
       start_linecap_type="zerowidth"
       linejoin_type="round"
       miter_limit="4"
       scale_width="1"
       end_linecap_type="zerowidth" />
  </defs>
  <sodipodi:namedview
     id="base"
     pagecolor="#bebebe"
     bordercolor="#666666"
     borderopacity="1.0"
     inkscape:pageopacity="0"
     inkscape:pageshadow="2"
     inkscape:zoom="0.80412987"
     inkscape:cx="368.09974"
     inkscape:cy="194.6203"
     inkscape:document-units="px"
     inkscape:current-layer="svg11019"
     inkscape:pagecheckerboard="true"
     showgrid="false"
     inkscape:window-width="1920"
     inkscape:window-height="1001"
     inkscape:window-x="-9"
     inkscape:window-y="-9"
     inkscape:window-maximized="1"
     units="px"
     inkscape:snap-global="false"
     inkscape:lockguides="true"
     inkscape:showpageshadow="0"
     inkscape:deskcolor="#bebebe" />
  <metadata
     id="metadata11016">
    <rdf:RDF>
      <cc:Work
         rdf:about="">
        <dc:format>image/svg+xml</dc:format>
        <dc:type
           rdf:resource="http://purl.org/dc/dcmitype/StillImage" />
      </cc:Work>
    </rdf:RDF>
  </metadata>
  <path
     id="path14630"
     style="font-weight:bold;font-size:58.2541px;font-family:MuseoModerno;-inkscape-font-specification:'MuseoModerno Bold';font-variation-settings:normal;vector-effect:none;fill:#fd9a0c;fill-opacity:1;stroke:none;stroke-width:17.2625;stroke-linecap:round;stroke-linejoin:bevel;stroke-miterlimit:4;stroke-dasharray:none;stroke-dashoffset:0;stroke-opacity:1;-inkscape-stroke:none;paint-order:stroke fill markers;stop-color:#000000"
     d="M 402.42578 0 C 392.15118 0 384.0783 2.9355283 378.20703 8.8066406 C 372.33592 14.678131 369.40039 25.965977 369.40039 36.240234 L 369.40039 41.1875 L 333.46875 41.1875 C 337.7875 44.370237 343.92578 51.275391 343.92578 51.275391 C 347.39958 54.893151 350.44637 58.919946 353.06641 63.359375 C 354.22608 65.240066 355.27801 67.170299 356.2207 69.150391 L 369.40039 69.150391 L 369.40039 154.13672 L 403.52539 154.13672 L 403.52539 69.150391 L 417.54688 69.150391 C 418.56987 66.674425 419.73452 64.294994 421.05859 62.025391 C 424.14298 56.737837 427.76973 52.111454 431.92773 48.130859 L 440.10938 41.1875 L 403.52539 41.1875 L 403.52539 34.347656 C 403.52539 32.58602 404.11285 31.117279 405.28711 29.943359 C 406.60813 28.622038 408.15074 27.960937 409.91211 27.960938 L 436.77344 27.960938 L 436.77344 0 L 402.42578 0 z M 476.53516 38.529297 C 466.11365 38.529297 456.57205 40.951085 447.91211 45.794922 C 439.39877 50.492114 432.5729 57.243356 427.43555 66.050781 C 422.29818 74.857071 419.73047 85.425919 419.73047 97.755859 C 419.73047 108.91075 422.37229 118.746 427.65625 127.25977 C 433.08716 135.62612 440.64653 142.23234 450.33398 147.07617 C 460.02154 151.77337 471.2515 154.12109 484.02148 154.12109 L 546.05469 154.12109 C 527.79074 147.51827 521.15991 139.30824 514.59375 130.45508 C 513.70514 128.98447 512.88462 127.47961 512.13477 125.93945 L 482.91992 125.93945 C 478.22292 125.93945 473.96654 125.35203 470.15039 124.17773 C 466.33405 122.8568 463.17692 120.87431 460.68164 118.23242 C 458.18632 115.59015 456.49985 112.36149 455.61914 108.54492 L 508.04688 108.54492 C 506.00934 93.443835 508.93765 71.384497 517.58984 62.347656 C 518.33067 61.077736 519.10482 59.845918 519.9082 58.652344 C 516.26229 53.6029 511.71413 49.388472 506.25781 46.015625 C 498.33162 41.024764 488.42433 38.52892 476.53516 38.529297 z M 571.35156 38.787109 C 560.93005 38.787109 551.39057 41.208897 542.73047 46.052734 C 534.21728 50.749927 527.39126 57.501926 522.25391 66.308594 C 517.11655 75.115263 514.54688 85.684109 514.54688 98.013672 C 514.54688 109.16894 517.19053 119.00263 522.47461 127.51562 C 527.90556 135.88236 535.46493 142.4882 545.15234 147.33203 C 554.83994 152.02885 566.06789 154.37695 578.83789 154.37695 L 623.66992 154.37695 L 623.66992 126.19531 L 577.73633 126.19531 C 573.03933 126.19531 568.78313 125.60789 564.9668 124.43359 C 561.1505 123.11265 557.99529 121.1325 555.5 118.49023 C 553.00472 115.84797 551.31626 112.61697 550.43555 108.80078 L 624.41406 108.80078 C 624.70773 107.33319 624.92757 105.35266 625.07422 102.85742 C 625.36789 100.21515 625.51367 97.939532 625.51367 96.03125 C 625.51367 85.022631 623.45951 75.261424 619.34961 66.748047 C 615.23976 58.088025 609.14897 51.263921 601.07617 46.273438 C 593.14995 41.282575 583.24092 38.787109 571.35156 38.787109 z M 476.53516 66.052734 C 479.17723 66.052734 481.52511 66.41918 483.58008 67.154297 C 485.7818 67.88828 487.69012 68.915385 489.30469 70.236328 C 490.91931 71.410627 492.31402 72.879367 493.48828 74.640625 C 494.8093 76.255237 495.76445 78.163663 496.35156 80.365234 C 496.93871 82.567185 497.37832 84.840857 497.67188 87.189453 L 454.73828 87.189453 C 455.17863 84.547189 455.83804 81.979617 456.71875 79.484375 C 457.74621 76.84211 459.14097 74.565728 460.90234 72.658203 C 462.66371 70.603276 464.86574 68.988751 467.50781 67.814453 C 470.14985 66.640155 473.15917 66.052356 476.53516 66.052734 z M 571.35156 66.308594 C 573.99364 66.308594 576.34362 66.674661 578.39844 67.410156 C 580.60017 68.143384 582.50847 69.171244 584.12305 70.492188 C 585.73766 71.666485 587.13042 73.132895 588.30469 74.894531 C 589.62571 76.509144 590.58086 78.417568 591.16797 80.619141 C 591.75512 82.820713 592.19462 85.096716 592.48828 87.445312 L 549.55469 87.445312 C 549.99505 84.803047 550.65644 82.233523 551.53711 79.738281 C 552.56442 77.095638 553.95932 74.822344 555.7207 72.914062 C 557.48207 70.859136 559.6823 69.24461 562.32422 68.070312 C 564.9663 66.896015 567.97558 66.308594 571.35156 66.308594 z M 735.96289 92.070312 A 33.096028 33.096028 0 0 0 702.86719 125.16797 A 33.096028 33.096028 0 0 0 735.96289 158.26367 A 33.096028 33.096028 0 0 0 769.05859 125.16797 A 33.096028 33.096028 0 0 0 735.96289 92.070312 z M 735.96289 109.44336 A 15.722786 15.722786 0 0 1 751.68555 125.16797 A 15.722786 15.722786 0 0 1 735.96289 140.89062 A 15.722786 15.722786 0 0 1 720.24023 125.16797 A 15.722786 15.722786 0 0 1 735.96289 109.44336 z " />
  <path
     id="path14640"
     style="color:#000000;font-variation-settings:normal;fill:#fc6111;fill-opacity:1;stroke:none;stroke-width:17.2625;stroke-linecap:round;stroke-linejoin:bevel;stroke-miterlimit:4;stroke-dasharray:none;stroke-dashoffset:0;stroke-opacity:1;paint-order:stroke fill markers;stop-color:#000000"
     d="M 13.416016 0 C 8.9124103 0.0018897598 5.263584 3.8374661 5.265625 8.5664062 C 5.267285 13.292701 8.9150559 17.122732 13.416016 17.125 L 63.353516 17.125 L 72.509766 17.125 A 8.1539298 8.5622892 0 0 1 80.667969 25.683594 A 8.1539298 8.5622892 0 0 1 72.509766 34.25 L 63.353516 34.25 L 57.052734 34.25 A 8.1539298 8.5622892 0 0 0 48.894531 42.808594 A 8.1539298 8.5622892 0 0 0 57.052734 51.375 L 63.353516 51.375 L 80.892578 51.375 A 8.1539298 8.5622892 0 0 1 89.050781 59.941406 A 8.1539298 8.5622892 0 0 1 80.892578 68.5 L 20.25 68.5 A 8.1539298 8.5622892 0 0 1 18.982422 68.234375 L 8.1523438 68.181641 C 3.6512711 68.183531 0.0014740099 72.013562 0 76.740234 C -0.0018897668 81.469175 3.6488899 85.304751 8.1523438 85.306641 L 63.353516 85.585938 L 63.353516 85.628906 C 67.857197 85.627006 71.510245 89.45856 71.511719 94.1875 C 71.510019 98.916818 67.857045 102.74837 63.353516 102.74609 C 58.847341 102.74409 55.193234 106.58053 55.195312 111.3125 C 55.196912 116.04145 58.849987 119.87532 63.353516 119.87305 L 78.425781 119.87305 C 82.931957 119.87105 86.584109 123.70749 86.582031 128.43945 C 86.580431 133.1684 82.929349 136.99994 78.425781 136.99805 L 63.353516 136.99805 C 58.847341 136.99605 55.193234 140.83249 55.195312 145.56445 C 55.196912 150.2934 58.849987 154.12494 63.353516 154.12305 L 78.425781 154.12305 L 107.09375 154.12305 L 107.09375 110.96875 L 136.37695 110.96875 C 146.79823 110.96875 156.26618 108.62102 164.7793 103.92383 C 167.96051 102.169 170.90539 100.15639 173.61523 97.888672 L 173.61523 73.009766 C 173.61523 60.273904 177.25363 50.265755 184.53125 42.988281 C 186.35332 41.166173 188.3517 39.572951 190.52734 38.207031 C 189.26268 34.098688 187.50461 30.243709 185.25391 26.642578 C 180.11678 18.275851 173.2187 11.743689 164.55859 7.046875 C 156.04522 2.3500608 146.65147 0.001953125 136.37695 0.001953125 L 80.898438 0.001953125 L 13.416016 0 z M 554.20508 0 C 549.70158 0.0018897598 546.05261 3.8374661 546.05469 8.5664062 C 546.05669 13.292701 549.70427 17.122732 554.20508 17.125 L 569.61133 17.125 C 574.11232 17.1227 577.76006 13.292701 577.76172 8.5664062 C 577.76372 3.8374661 574.11493 0.0018897598 569.61133 0 L 554.20508 0 z M 597.34961 0 C 592.846 0.0018897598 589.19522 3.8374661 589.19727 8.5664062 C 589.19927 13.292701 592.84865 17.122732 597.34961 17.125 L 619.88672 17.125 L 643.51758 17.125 L 645.47656 17.125 C 649.98017 17.1269 653.62899 20.962088 653.62695 25.691406 C 653.62495 30.417701 649.97756 34.247733 645.47656 34.25 L 643.51758 34.25 L 624.47852 34.25 C 619.97488 34.2519 616.32605 38.087844 616.32812 42.816406 C 616.33012 47.543079 619.97756 51.37311 624.47852 51.375 L 635.26172 51.375 L 643.51758 51.375 L 651.04297 51.375 C 655.54661 51.3765 659.1954 55.212844 659.19336 59.941406 C 659.19136 64.668079 655.54396 68.498488 651.04297 68.5 L 643.51758 68.5 L 643.51758 68.501953 L 640.83203 68.501953 C 636.32847 68.503053 632.67956 72.337088 632.68164 77.066406 C 632.68364 81.792701 636.33111 85.625063 640.83203 85.626953 L 643.51758 85.626953 L 643.51758 85.951172 C 644.22352 85.743298 644.96647 85.626953 645.73633 85.626953 L 661.51758 85.626953 C 666.02118 85.628853 669.67196 89.464041 669.66992 94.193359 C 669.66792 98.919654 666.01854 102.75005 661.51758 102.75195 L 645.73633 102.75195 C 644.96693 102.75156 644.22318 102.63744 643.51758 102.42578 L 643.51758 102.75195 L 640.83203 102.75195 C 636.32847 102.75395 632.67956 106.58903 632.68164 111.31836 C 632.68364 116.04464 636.33111 119.87544 640.83203 119.87695 L 643.51758 119.87695 L 649.2207 119.87695 L 690.45312 119.87695 C 692.85939 119.87695 695.30212 117.98646 696.07031 115.70703 C 696.79065 113.56932 697.61409 111.31361 698.05078 110.20508 C 704.10222 94.840549 719.02398 84.406123 735.96289 84.402344 C 754.31346 84.404644 770.29817 96.648226 775.20312 114.14062 C 775.54214 115.34931 776.77198 116.3457 778.02734 116.3457 L 785.95312 116.3457 A 2.2730277 2.2730277 0 0 0 788.22656 114.07227 L 788.22656 81.617188 A 24.538606 24.538606 0 0 0 783.4375 67.054688 L 751.38281 23.585938 A 9.0007832 9.0007832 0 0 0 744.13867 19.925781 L 712.49023 19.925781 A 3.1769197 3.1769197 0 0 1 709.3125 16.75 L 709.3125 9.6601562 A 9.660386 9.660386 0 0 0 699.65234 0 L 646.19336 0 L 597.34961 0 z M 107.09375 30.824219 L 132.19336 30.824219 C 136.45006 30.824219 140.33858 31.850945 143.86133 33.90625 C 147.53086 35.814154 150.46838 38.603897 152.66992 42.273438 C 154.87164 45.942977 155.97266 50.344915 155.97266 55.482422 C 155.97266 60.61955 154.87164 65.02382 152.66992 68.693359 C 150.46838 72.3629 147.60477 75.152265 144.08203 77.060547 C 140.55924 78.96845 136.59684 79.921875 132.19336 79.921875 L 107.09375 79.921875 L 107.09375 30.824219 z M 723.01562 31.851562 L 737.35742 31.851562 A 5.1758404 5.1758404 0 0 1 741.52344 33.955078 L 758.6543 57.185547 A 1.320153 1.320153 0 0 1 757.5918 59.289062 L 752.37305 59.289062 L 723.01562 59.289062 A 2.6139819 2.6139819 0 0 1 720.40234 56.675781 L 720.40234 34.466797 A 2.6139819 2.6139819 0 0 1 723.01562 31.851562 z M 11.867188 34.25 C 7.3663033 34.250756 3.7184599 38.081542 3.7167969 42.808594 C 3.7147569 47.540557 7.3668717 51.377268 11.873047 51.375 L 20.25 51.375 L 31.152344 51.375 C 35.658518 51.3773 39.312626 47.540557 39.310547 42.808594 C 39.308947 38.079653 35.655872 34.247355 31.152344 34.25 L 11.867188 34.25 z M 294.11328 35.554688 C 260.29211 35.553932 232.87439 62.9719 232.875 96.792969 C 232.87545 130.61328 260.29286 158.03006 294.11328 158.0293 C 327.93292 158.02892 355.34912 130.61253 355.34961 96.792969 C 355.35018 62.972656 327.93367 35.555065 294.11328 35.554688 z M 253.62109 41.392578 L 215.76172 41.394531 C 205.34036 41.394531 197.19547 44.33006 191.32422 50.201172 C 185.45295 56.072662 182.51562 64.143711 182.51562 74.417969 L 182.51562 154.12109 L 216.64258 154.12109 L 216.64258 76.619141 C 216.64258 74.417568 217.37788 72.659212 218.8457 71.337891 C 220.31351 69.869923 222.07398 69.136719 224.12891 69.136719 L 230.86914 69.136719 C 231.7723 67.195556 232.77579 65.301816 233.88281 63.457031 C 237.3526 57.736344 241.50854 52.699022 246.34766 48.347656 L 253.62109 41.392578 z M 294.11328 67.703125 C 310.18023 67.703125 323.20516 80.727788 323.20508 96.794922 C 323.20516 112.86205 310.18023 125.88672 294.11328 125.88672 C 278.0463 125.88672 265.02141 112.86205 265.02148 96.794922 C 265.02141 80.727788 278.0463 67.703125 294.11328 67.703125 z M 28.464844 102.75391 C 23.961314 102.75091 20.310257 106.58355 20.308594 111.3125 C 20.306594 115.97076 23.846591 119.75853 28.255859 119.87305 L 41.818359 119.87305 C 46.226721 119.75588 49.765675 115.97039 49.763672 111.3125 C 49.761972 106.58355 46.110951 102.75127 41.607422 102.75391 L 28.464844 102.75391 z M 177.7207 177.24414 A 2.9045668 2.9045668 0 0 0 174.81836 180.15234 A 2.9045668 2.9045668 0 0 0 177.7207 183.05273 L 612.32227 183.05273 A 2.9045668 2.9045668 0 0 0 615.23047 180.15234 A 2.9045668 2.9045668 0 0 0 612.32227 177.24414 L 177.7207 177.24414 z M 268.39453 193.4043 C 265.88301 193.4043 263.4627 193.81163 261.13477 194.62305 C 258.84527 195.43447 256.84467 196.55474 255.13281 197.98438 C 253.42095 199.41381 252.16547 201.03554 251.36523 202.85156 C 250.03737 205.86539 250.14898 209.38195 251.70117 213.40039 L 243.00781 213.40039 L 242.60156 213.40039 L 221.91016 213.40039 L 221.34766 214.67578 L 221.74805 219.94922 L 230.03711 219.94922 L 223.75391 234.20703 L 212.91602 234.20703 L 217.81836 223.08008 C 218.82292 220.80039 219.08729 218.88735 218.60938 217.3418 C 218.13127 215.79624 217.14487 214.65581 215.65234 213.92188 C 214.19867 213.18774 212.56407 212.82031 210.74805 212.82031 C 208.54564 212.82031 206.464 213.38143 204.50195 214.50195 C 202.59578 215.58384 201.2082 217.10949 200.33984 219.08008 C 199.28421 221.47568 199.38834 223.73619 200.6543 225.86133 C 201.92026 227.98646 203.90915 229.74572 206.61914 231.13672 L 205.26562 234.20703 L 201.15039 234.20703 C 200.56559 235.09572 200.02502 236.10018 199.53125 237.2207 C 199.00343 238.41851 198.68487 239.71447 198.57422 241.10547 C 198.46358 242.49647 198.67007 243.69266 199.19336 244.69727 C 199.75529 245.70168 200.75006 246.20508 202.17969 246.20508 C 205.19332 246.20508 207.74109 244.36991 209.82227 240.69922 L 220.83594 240.69922 L 216.44141 250.66797 L 221.26758 254.31836 L 222.54102 254.31836 L 237.6875 219.94922 L 242.43945 219.94922 L 242.90234 219.94922 L 248.17773 219.94922 L 234.64062 250.66797 L 239.46484 254.31836 L 240.79883 254.31836 L 255.94336 219.94922 L 261.10156 219.94922 L 286.66211 219.94922 L 282.03906 230.44141 L 281.98047 230.44141 C 281.2476 228.50947 280.22007 226.80812 278.89648 225.33984 C 277.57311 223.87177 275.82959 223.13867 273.66602 223.13867 C 271.61816 223.13867 269.50175 223.63993 267.32031 224.64453 C 265.13888 225.64914 263.1016 227.11689 261.20703 229.04883 C 259.36813 230.94213 257.87905 233.18463 256.73828 235.77344 C 255.66562 238.20768 255.31741 240.31266 255.69336 242.08984 C 256.12497 243.82859 257.02383 245.16251 258.39258 246.08984 C 259.79997 247.01718 261.45045 247.48047 263.34375 247.48047 C 265.46889 247.48047 267.50826 247.151 269.45898 246.49414 C 271.42692 245.79864 273.66494 244.79419 276.17578 243.48047 L 276.44141 243.53906 L 272.85352 250.49414 L 278.06641 254.31836 L 279.3418 254.31836 L 294.48633 219.94922 L 299.15039 219.94922 L 299.1543 220.00781 L 303.38672 220.00781 L 298.40625 231.31055 C 297.7933 232.70155 297.5616 233.83982 297.71094 234.72852 C 297.86027 235.61701 298.37369 236.95113 299.25195 238.72852 C 300.38956 240.96937 301.38877 242.68891 302.25195 243.88672 C 303.13216 245.04588 304.1915 245.625 305.42773 245.625 C 306.78009 245.625 308.52776 245.29748 310.67188 244.64062 C 312.83282 243.94533 314.91147 243.13241 316.9043 242.20508 L 317.6543 238.23438 C 318.03011 239.91533 318.6826 241.33764 319.61523 242.49609 C 321.55181 244.85306 324.31675 246.03125 327.91016 246.03125 C 329.26231 246.03125 330.71998 245.83756 332.28125 245.45117 C 333.88115 245.06479 335.16103 244.6592 336.12109 244.23438 L 336.21094 244.29297 L 333.40234 250.66797 L 338.22656 254.31836 L 339.50195 254.31836 L 354.64648 219.94922 L 359.86328 219.94922 L 369.77344 219.94922 C 369.17098 221.84252 368.51179 223.60178 367.79688 225.22461 C 367.28609 226.38377 366.68569 227.48409 365.99414 228.52734 C 365.34124 229.57059 364.7492 230.3434 364.21875 230.8457 L 361.5918 229.04883 C 360.67036 229.47385 359.66523 230.13083 358.57812 231.01953 C 357.54689 231.86958 356.84333 232.72026 356.46875 233.57031 C 356.06012 234.49764 355.93398 235.44418 356.08789 236.41016 C 356.24182 237.37613 356.61046 238.55432 357.19531 239.94531 L 363.63281 254.66797 L 369.10156 251.5957 L 361.45508 240.93164 C 363.31364 239.6952 364.96227 238.49706 366.40039 237.33789 L 366.57422 237.33789 C 367.68299 238.76753 368.81867 239.82989 369.98047 240.52539 C 371.1593 241.18225 372.44494 241.50977 373.83594 241.50977 C 375.57468 241.50977 377.59069 241.1443 379.88477 240.41016 L 381.00977 238.26367 C 381.38662 239.93197 382.03746 241.34441 382.96484 242.49609 C 384.90142 244.85306 387.66636 246.03125 391.25977 246.03125 C 392.61192 246.03125 394.06764 245.83756 395.62891 245.45117 C 397.2286 245.06479 398.50868 244.6592 399.46875 244.23438 L 399.56055 244.29297 L 396.75 250.66797 L 401.57422 254.31836 L 402.84961 254.31836 L 417.99414 219.94922 L 423.21094 219.94922 L 423.74805 218.73242 L 423.25781 213.40039 L 386.74414 213.40039 L 359.9082 213.40039 L 320.0918 213.40039 L 320.06641 213.45898 L 299.69531 213.45898 L 299.68945 213.40039 L 261.14844 213.40039 L 256.62695 213.40039 C 256.53325 212.47306 256.55779 211.41069 256.69922 210.21289 C 256.87929 209.01509 257.20685 207.87485 257.68359 206.79297 C 258.58599 204.74511 260.03838 203.16135 262.03906 202.04102 C 264.09541 200.88186 266.30143 200.30273 268.6582 200.30273 C 272.13569 200.30273 275.61553 201.48093 279.09766 203.83789 C 282.57959 206.19486 285.75068 208.99652 288.60938 212.24219 L 291.25977 210.03906 C 287.96292 205.5958 284.38156 201.71162 280.51367 198.38867 C 276.68463 195.06594 272.64481 193.4043 268.39453 193.4043 z M 435.83398 213.40039 L 435.27344 214.67578 L 435.67188 219.94922 L 461.98633 219.94922 L 457.36328 230.44141 L 457.30469 230.44141 C 456.53317 228.50947 455.46553 226.80812 454.10352 225.33984 C 452.77994 223.87177 451.03662 223.13867 448.87305 223.13867 C 447.01838 223.13867 444.97343 223.66008 442.73633 224.70312 C 440.51626 225.70774 438.41891 227.17548 436.44727 229.10742 C 434.49244 231.00073 432.95382 233.22327 431.83008 235.77344 C 430.77444 238.16904 430.47256 240.25387 430.92578 242.03125 C 431.41765 243.80863 432.40616 245.16251 433.89062 246.08984 C 435.41393 247.01718 437.10237 247.48047 438.95703 247.48047 C 440.96625 247.48047 442.92776 247.151 444.83984 246.49414 C 446.76915 245.79864 448.98916 244.79419 451.5 243.48047 L 451.76562 243.53906 L 448.23633 250.49414 L 453.39062 254.31836 L 454.66406 254.31836 L 469.81055 219.94922 L 475.08398 219.94922 L 500.875 219.94922 L 493.23828 237.2793 C 490.95928 238.59302 488.5827 239.73325 486.10938 240.69922 C 483.69152 241.62655 481.55584 242.08984 479.70117 242.08984 C 478.85112 242.08984 478.22891 241.83824 477.83203 241.33594 C 477.47379 240.83364 477.52271 240.06083 477.98242 239.01758 C 478.40808 238.05161 479.31158 236.97124 480.68945 235.77344 C 482.12299 234.53699 483.6461 233.53059 485.26172 232.75781 L 493.08594 232.75781 L 493.62305 231.54102 L 493.13281 226.20898 L 472.61523 226.20898 L 472.05273 227.48438 L 472.45312 232.75781 L 476.45312 232.75781 C 475.26538 234.22609 474.34818 235.69578 473.70117 237.16406 C 473.1393 238.43914 472.90888 239.61733 473.01172 240.69922 C 473.13159 241.74247 473.49574 242.84279 474.10547 244.00195 C 475.48998 246.82258 477.67149 248.23438 480.64648 248.23438 C 481.88293 248.23438 483.28762 247.98277 484.86133 247.48047 C 486.49069 246.93953 488.10005 246.22463 489.68945 245.33594 L 489.7207 245.39453 L 486.92773 250.55273 L 492.13867 254.37695 L 493.41406 254.37695 L 508.55859 220.00781 L 513.77539 220.00781 L 513.80078 219.94922 L 537.73633 219.94922 L 535.23438 225.63086 L 525.61328 225.63086 C 521.44049 225.63086 518.08264 226.49953 515.53906 228.23828 C 513.05115 229.93839 511.13415 232.31472 509.78906 235.36719 C 508.34182 238.65128 508.16749 241.89649 509.26562 245.10352 C 510.41962 248.2717 512.19673 251.38308 514.59961 254.43555 L 518.18359 251.82617 C 515.10566 246.1851 514.42702 241.41403 516.14648 237.51172 C 516.94672 235.69569 517.97891 234.36178 519.24219 233.51172 C 520.56113 232.62303 522.2052 232.17969 524.17578 232.17969 L 532.34766 232.17969 L 524.20117 250.66797 L 529.08398 254.31836 L 530.35742 254.31836 L 545.50391 219.94922 L 550.71875 219.94922 L 557.55859 219.94922 L 551.78711 233.04883 L 547.67188 233.04883 C 547.08708 233.93752 546.54845 234.94197 546.05469 236.0625 C 545.52687 237.26031 545.20634 238.55432 545.0957 239.94531 C 544.98506 241.33631 545.19156 242.53445 545.71484 243.53906 C 546.27676 244.54367 547.27369 245.04687 548.70312 245.04688 C 551.71696 245.04687 554.26473 243.20975 556.3457 239.53906 L 567.9375 239.53906 L 563.0332 250.66797 L 557.77539 252.54102 L 562.4375 257.33398 L 566.82227 256.15039 L 577.11328 262.69336 L 578.36719 261.60742 L 569.74023 252.93945 L 584.27734 219.94922 L 589.49414 219.94922 L 590.0293 218.73242 L 589.59766 213.40039 L 550.70703 213.40039 L 513.9043 213.40039 L 475.01367 213.40039 L 435.83398 213.40039 z M 210.69531 217.80469 C 211.50673 217.80469 211.97128 218.15411 212.08984 218.84961 C 212.26405 219.50647 212.13019 220.33718 211.6875 221.3418 C 211.00645 222.88735 209.83911 225.01208 208.18359 227.7168 C 207.16717 226.86674 206.48129 225.88009 206.125 224.75977 C 205.76871 223.63924 205.85304 222.48101 206.38086 221.2832 C 206.89165 220.12404 207.54546 219.25536 208.3418 218.67578 C 209.13814 218.0962 209.92253 217.80469 210.69531 217.80469 z M 323.34961 219.94922 L 329.37695 219.94922 C 330.04499 221.76524 329.99451 223.54251 329.22852 225.28125 C 328.54746 226.82681 327.28235 228.12277 325.43164 229.16602 C 323.58093 230.20906 320.89762 231.21372 317.38086 232.17969 C 317.27481 233.35506 317.25096 234.45331 317.30078 235.48242 C 317.09751 235.60443 316.89485 235.72542 316.69922 235.83008 L 311.15234 220.00781 L 323.32422 220.00781 L 323.34961 219.94922 z M 335.23047 219.94922 L 346.9375 219.94922 L 339.71094 236.35156 C 335.13918 238.74717 331.11422 239.94531 327.63672 239.94531 C 326.1298 239.94531 324.94584 239.51997 324.08398 238.66992 C 323.22232 237.81987 322.95898 236.66164 323.29688 235.19336 C 326.23844 234.30467 328.89172 233.10652 331.25586 231.59961 C 333.65864 230.09269 335.15798 228.66291 335.75391 227.31055 C 336.57117 225.45589 336.39691 223.00169 335.23047 219.94922 z M 376.78711 219.94922 L 386.69727 219.94922 L 392.72461 219.94922 C 393.39265 221.76524 393.34432 223.54251 392.57812 225.28125 C 391.89727 226.82681 390.63195 228.12277 388.78125 229.16602 C 386.93054 230.20906 384.24508 231.21372 380.72852 232.17969 C 380.686 232.65083 380.66395 233.10314 380.64648 233.55078 C 379.0822 233.98246 377.44271 234.20703 375.7207 234.20703 L 375.60352 234.20703 C 373.9034 234.20703 372.33402 233.78365 370.89258 232.93359 C 372.15781 231.46552 373.12113 229.97761 373.78516 228.4707 C 375.02809 225.65027 376.02946 222.80849 376.78711 219.94922 z M 398.57812 219.94922 L 410.28711 219.94922 L 403.05859 236.35156 C 398.48702 238.74717 394.46166 239.94531 390.98438 239.94531 C 389.47746 239.94531 388.2935 239.51997 387.43164 238.66992 C 386.56977 237.81987 386.30858 236.66164 386.64648 235.19336 C 389.58825 234.30467 392.24133 233.10652 394.60547 231.59961 C 397.00825 230.09269 398.50759 228.66291 399.10352 227.31055 C 399.92058 225.45589 399.74456 223.00169 398.57812 219.94922 z M 565.15039 219.94922 L 576.56836 219.94922 L 570.79688 233.04883 L 559.37891 233.04883 L 565.15039 219.94922 z M 309.72266 223.25391 L 314.50781 236.99023 C 311.57673 238.38123 309.04681 239.07617 306.92188 239.07617 L 306.94922 239.01758 C 305.67414 239.01758 304.76859 238.74797 304.23438 238.20703 C 303.73864 237.66609 303.72834 236.85532 304.20508 235.77344 L 309.72266 223.25391 z M 273.52344 230.03516 C 274.95308 230.03516 276.27624 230.49845 277.49023 231.42578 C 278.74307 232.35311 279.65802 233.47338 280.23828 234.78711 L 280.1875 234.90234 C 277.73823 236.60246 274.91122 238.11011 271.70508 239.42383 C 268.53739 240.73755 265.85281 241.39453 263.65039 241.39453 L 263.5918 241.39453 C 261.54394 241.39453 260.11997 240.98915 259.31836 240.17773 C 258.55539 239.36652 258.44539 238.34191 258.99023 237.10547 C 259.44995 236.06222 260.4212 234.99985 261.90234 233.91797 C 263.43936 232.79744 265.23854 231.87086 267.30078 231.13672 C 269.40167 230.40258 271.47558 230.03516 273.52344 230.03516 z M 448.73242 230.03516 C 450.20069 230.03516 451.5333 230.5184 452.73047 231.48438 C 453.98331 232.41151 454.90857 233.51202 455.50586 234.78711 L 455.45508 234.90234 C 452.82178 236.75701 450.06252 238.28462 447.17773 239.48242 L 445.04297 230.38281 C 446.26565 230.15098 447.49598 230.03516 448.73242 230.03516 z M 442.75977 230.96289 L 444.82422 240.35156 C 442.70172 241.04706 440.82791 241.39453 439.20508 241.39453 C 437.11858 241.39453 435.59679 240.98915 434.64062 240.17773 C 433.74033 239.32788 433.55421 238.30327 434.08203 237.10547 C 434.5758 235.98494 435.6099 234.86467 437.18555 233.74414 C 438.77823 232.58498 440.63727 231.65839 442.75977 230.96289 z M 177.7207 272.35938 A 2.9045668 2.9045668 0 0 0 174.81836 275.26758 A 2.9045668 2.9045668 0 0 0 177.7207 278.16797 L 612.32227 278.16797 A 2.9045668 2.9045668 0 0 0 615.23047 275.26758 A 2.9045668 2.9045668 0 0 0 612.32227 272.35938 L 177.7207 272.35938 z " />
</svg>
